<?xml version="1.0" standalone="no"?>
<!DOCTYPE svg PUBLIC "-//W3C//DTD SVG 20010904//EN"
 "http://www.w3.org/TR/2001/REC-SVG-20010904/DTD/svg10.dtd">
<svg version="1.0" xmlns="http://www.w3.org/2000/svg"
 viewBox="380 535 1310 960"
 preserveAspectRatio="xMidYMid meet">

<g transform="translate(0.000000,2048.000000) scale(0.100000,-0.100000)"
fill="#60a5fa" stroke="none">
<path d="M9900 14670 c0 -3 170 -128 377 -277 l377 -273 782 0 782 0 -188
-562 c-304 -909 -745 -2243 -930 -2808 -214 -657 -258 -788 -273 -822 -7 -17
-96 -89 -237 -192 -124 -92 -299 -220 -389 -287 -90 -66 -166 -118 -168 -115
-3 3 20 76 50 163 31 87 91 258 134 381 l79 222 -3 1253 -2 1252 -168 113
c-92 62 -258 172 -368 243 -110 72 -319 209 -465 306 -146 96 -270 177 -276
179 -6 3 -121 -65 -255 -150 -134 -86 -248 -158 -254 -160 -15 -7 13 -27 376
-264 184 -120 452 -296 597 -391 l262 -174 -2 -930 -3 -931 -240 -155 c-133
-86 -292 -189 -355 -230 -185 -120 -726 -468 -840 -541 -58 -37 -170 -109
-250 -160 -185 -119 -631 -402 -735 -467 -44 -27 -106 -66 -137 -86 l-56 -37
-59 43 c-32 24 -161 117 -288 207 -126 90 -331 236 -455 325 -124 89 -359 258
-522 375 l-298 212 0 289 c0 159 2 289 5 289 2 0 244 -158 537 -351 293 -193
605 -398 693 -456 88 -57 259 -170 379 -249 201 -132 221 -143 240 -131 59 38
198 125 339 212 87 54 154 101 150 106 -4 4 -111 75 -238 157 -126 83 -309
202 -405 265 -96 63 -427 281 -735 483 -308 202 -651 427 -762 500 l-203 133
1 828 0 828 292 217 c161 120 343 259 406 308 62 50 115 89 118 86 3 -2 -9
-42 -26 -88 -16 -46 -78 -220 -136 -387 l-105 -305 0 -763 0 -763 38 -24 c71
-45 496 -297 504 -299 4 -1 8 331 8 738 0 407 4 745 8 751 9 15 211 147 1472
962 327 211 624 404 660 427 36 23 124 79 195 125 72 45 168 107 214 138 75
48 87 53 105 42 28 -18 162 -117 841 -625 325 -243 625 -466 667 -496 l77 -54
2 -590 c2 -324 2 -697 0 -827 -1 -138 2 -238 7 -238 5 0 20 37 34 83 29 94
508 1553 657 2002 l100 300 -432 5 -433 5 -224 167 c-124 91 -459 340 -745
552 l-520 385 -1116 1 -1116 0 -54 -38 c-30 -21 -209 -154 -399 -295 -190
-141 -446 -332 -570 -424 -124 -92 -420 -313 -657 -491 l-433 -323 0 -1725 0
-1724 83 -59 c45 -33 242 -174 437 -313 514 -367 1474 -1054 1551 -1110 l66
-48 1095 0 1095 0 449 318 c758 538 1559 1113 1565 1125 9 17 194 570 592
1777 190 575 474 1435 632 1912 l286 868 971 2 c533 2 972 0 974 -4 5 -8 -193
-527 -208 -545 -8 -10 -183 -13 -814 -13 l-804 0 -1 -2187 0 -2188 -266 -185
c-146 -102 -270 -187 -275 -188 -4 -2 -7 630 -6 1407 2 776 0 1411 -3 1411 -3
0 -11 -19 -18 -42 -11 -37 -235 -722 -467 -1428 l-64 -196 0 -922 0 -922 276
0 275 0 292 205 c161 112 411 289 556 392 l264 188 1 2055 1 2055 722 3 721 2
20 58 c11 31 149 399 307 817 157 418 287 763 288 767 1 4 -1266 9 -2816 10
-1549 2 -2817 1 -2817 -2z m-1537 -561 c-4 -4 -168 -110 -363 -235 -493 -315
-575 -367 -910 -582 -179 -115 -296 -184 -298 -177 -3 14 139 442 262 790 l74
210 614 5 c337 3 617 3 621 1 5 -2 5 -7 0 -12z m1121 -4669 c-41 -118 -113
-323 -159 -455 -46 -132 -89 -255 -95 -272 l-12 -33 -592 0 c-326 0 -595 3
-599 6 -3 4 82 63 191 131 264 167 780 495 1087 692 138 87 251 156 253 152 1
-3 -32 -103 -74 -221z"/>
<path d="M4986 7179 c-112 -15 -185 -38 -281 -87 -72 -36 -107 -63 -175 -131
-138 -139 -194 -279 -192 -486 1 -206 56 -340 196 -481 66 -66 98 -89 176
-127 132 -65 191 -79 355 -84 114 -4 158 -1 238 15 377 78 610 392 568 767
-35 301 -254 535 -561 599 -100 20 -239 27 -324 15z m286 -346 c129 -60 205
-174 215 -321 13 -184 -85 -337 -253 -392 -147 -49 -321 -8 -415 98 -138 155
-137 403 1 540 82 81 168 113 295 109 76 -2 100 -7 157 -34z"/>
<path d="M13965 7180 c-268 -38 -460 -166 -565 -375 -59 -117 -74 -187 -73
-335 0 -107 4 -137 26 -205 38 -115 90 -196 183 -284 146 -139 278 -190 511
-198 124 -5 156 -3 238 17 132 30 241 86 328 169 l69 67 -126 107 c-69 59
-127 107 -129 107 -2 0 -23 -18 -46 -40 -120 -115 -311 -147 -457 -78 -161 75
-251 285 -199 463 31 110 95 188 198 243 48 25 61 27 167 27 108 0 119 -2 180
-31 36 -17 86 -50 112 -73 l48 -42 120 102 c66 57 120 106 120 110 0 3 -31 36
-70 72 -79 76 -176 126 -296 157 -90 23 -251 33 -339 20z"/>
<path d="M6090 6485 l0 -675 180 0 180 0 0 346 c0 190 3 343 8 340 4 -2 88
-128 187 -280 l180 -276 95 2 95 3 175 287 c96 159 178 288 183 288 4 0 7
-160 7 -355 l0 -355 180 0 180 0 0 675 0 675 -168 0 -168 0 -104 -167 c-292
-474 -375 -603 -383 -600 -6 2 -49 64 -95 138 -47 73 -156 244 -242 379 l-157
245 -166 3 -167 2 0 -675z"/>
<path d="M8007 7153 c-4 -3 -7 -307 -7 -675 l0 -668 190 0 190 0 2 356 3 356
305 -356 305 -356 167 0 168 0 0 675 0 675 -190 0 -190 0 0 -361 c0 -198 -4
-359 -8 -357 -8 3 -139 158 -526 620 l-81 98 -161 0 c-88 0 -164 -3 -167 -7z"/>
<path d="M9597 7153 c-4 -3 -7 -307 -7 -675 l0 -668 195 0 195 0 0 675 0 675
-188 0 c-104 0 -192 -3 -195 -7z"/>
<path d="M10684 7147 c-2 -7 -3 -75 -2 -151 l3 -138 218 2 217 1 0 -524 c0
-288 2 -526 4 -528 2 -2 90 -3 195 -1 l191 3 0 524 0 525 215 0 216 0 -3 148
-3 147 -623 3 c-505 2 -624 0 -628 -11z"/>
<path d="M12070 6485 l0 -675 563 0 562 0 -2 142 -2 143 -366 3 -365 2 0 120
0 120 315 0 315 0 0 145 0 145 -315 0 -315 0 0 115 0 115 355 0 355 0 0 150 0
150 -550 0 -550 0 0 -675z"/>
<path d="M14818 6488 c-2 -370 -2 -675 -1 -678 0 -3 87 -4 192 -2 l191 3 0
264 0 265 280 0 280 0 0 -263 c0 -145 2 -266 4 -268 2 -2 88 -3 190 -1 l186 3
-2 672 -3 672 -185 0 -185 0 -3 -247 -2 -248 -280 0 -280 0 -2 248 -3 247
-187 3 -188 2 -2 -672z"/>
</g>
</svg>
